# xmcd CD database file
#
# Track frame offsets:
#	150
#	23158
#	43365
#	59920
#	84567
#	95187
#	123584
#	145484
#	172526
#	199001
#	231498
#	249413
#	276313
#	303537
#	323806
#
# Disc length: 4587 seconds
#
# Revision: 0
# Processed by: cddbd v1.5PL3 Copyright (c) Steve Scherf et al.
# Submitted via: CDex 1.51
#
DISCID=e411e90f
DTITLE=Various Artist - CD Bible-Jazz Music
DYEAR=2003
DGENRE=Jazz
TTITLE0=Cry Me a River
TTITLE1=Nancy(With the Laughing Face
TTITLE2=Time after Time
TTITLE3=What a Shame
TTITLE4=Amazing Grace
TTITLE5=So Much in Common
TTITLE6=8th Avence March
TTITLE7=Afternoon Delight
TTITLE8=Foolin' Myself
TTITLE9=Hight Life
TTITLE10=Lonesome Valley
TTITLE11=Gaslighting Abbie
TTITLE12=Come Rain or Come Shine
TTITLE13=Rotella Thom Band
TTITLE14=Who's Afraid of Virginia Woolf(Part1)
EXTD=YEAR: 2003
EXTT0=
EXTT1=
EXTT2=
EXTT3=
EXTT4=
EXTT5=
EXTT6=
EXTT7=
EXTT8=
EXTT9=
EXTT10=
EXTT11=
EXTT12=
EXTT13=
EXTT14=
PLAYORDER=
